<?xml version="1.0" standalone="no"?>
<!DOCTYPE svg PUBLIC "-//W3C//DTD SVG 20010904//EN"
 "http://www.w3.org/TR/2001/REC-SVG-20010904/DTD/svg10.dtd">
<svg version="1.0" xmlns="http://www.w3.org/2000/svg"
 width="225.000000pt" height="225.000000pt" viewBox="0 0 225.000000 225.000000"
 preserveAspectRatio="xMidYMid meet">
<metadata>
Created by potrace 1.11, written by Peter Selinger 2001-2013
</metadata>
<g transform="translate(0.000000,225.000000) scale(0.100000,-0.100000)"
fill="#000000" stroke="none">
<path d="M637 1765 c-130 -68 -127 -239 4 -305 117 -60 248 32 237 166 -10
121 -137 194 -241 139z m132 -43 c37 -19 71 -72 71 -112 0 -32 -32 -84 -64
-105 -32 -21 -97 -22 -129 0 -82 53 -78 177 7 219 41 20 74 20 115 -2z"/>
<path d="M1099 1780 c-63 -11 -121 -70 -134 -136 -25 -134 128 -246 249 -182
34 18 74 68 82 102 7 29 8 40 5 84 -2 29 -52 99 -80 112 -41 20 -83 27 -122
20z m101 -56 c80 -48 80 -178 -2 -220 -42 -22 -91 -20 -131 5 -38 23 -57 58
-57 104 1 94 110 158 190 111z"/>
<path d="M1506 1775 c-103 -36 -147 -152 -94 -247 26 -46 68 -75 125 -84 110
-17 204 82 189 198 -12 95 -127 165 -220 133z m128 -61 c31 -23 57 -83 50
-119 -11 -62 -62 -106 -125 -107 -100 -1 -160 112 -104 198 35 53 125 67 179
28z"/>
<path d="M1416 1189 c-44 -10 -93 -45 -143 -99 -23 -25 -33 -30 -33 -18 0 27
-48 76 -81 83 -92 20 -152 -31 -304 -259 -157 -235 -232 -311 -352 -356 -137
-51 -237 -14 -261 97 -14 70 -8 80 57 86 168 18 351 127 400 238 23 50 22 121
0 157 -20 32 -68 54 -119 55 -125 1 -323 -153 -397 -309 -35 -73 -38 -85 -38
-170 0 -82 2 -94 28 -133 40 -60 117 -95 212 -94 119 0 218 48 327 160 55 56
128 146 128 157 0 3 37 60 82 127 119 175 187 228 233 182 47 -46 -29 -211
-248 -544 -18 -26 -18 -27 17 -47 l34 -20 28 35 c45 55 156 212 194 273 100
162 181 279 216 313 46 45 88 50 105 13 21 -45 -8 -129 -117 -342 -57 -112
-104 -205 -104 -208 0 -5 72 -48 75 -44 1 2 45 75 98 163 173 292 271 405 350
405 20 0 26 -6 29 -30 7 -44 -20 -111 -91 -227 -97 -160 -116 -243 -67 -300
21 -24 32 -28 74 -28 39 0 59 7 98 33 51 35 128 126 190 225 34 54 35 60 21
75 -9 9 -18 14 -20 11 -2 -2 -34 -46 -71 -98 -85 -118 -129 -166 -167 -182
-70 -28 -68 36 4 175 30 57 65 130 77 162 27 74 30 160 6 197 -45 68 -160 50
-256 -42 -24 -22 -45 -41 -47 -41 -1 0 -3 13 -3 30 0 16 -7 47 -16 69 -25 62
-76 86 -148 70z m-791 -79 c52 -58 -48 -209 -195 -293 -47 -26 -153 -61 -170
-55 -14 4 41 117 88 180 81 108 171 175 253 187 3 1 14 -8 24 -19z"/>
</g>
</svg>
